<?xml version="1.0" encoding="UTF-8" standalone="no"?>
<svg
   id="svg"
   width="324.60922"
   height="176.48523"
   viewBox="0 0 324.60922 176.48523"
   version="1.1"
   sodipodi:docname="icon.svg"
   inkscape:version="1.1.2 (0a00cf5339, 2022-02-04)"
   xmlns:inkscape="http://www.inkscape.org/namespaces/inkscape"
   xmlns:sodipodi="http://sodipodi.sourceforge.net/DTD/sodipodi-0.dtd"
   xmlns="http://www.w3.org/2000/svg"
   xmlns:svg="http://www.w3.org/2000/svg">
  <defs
     id="defs53" />
  <sodipodi:namedview
     id="namedview51"
     pagecolor="#ffffff"
     bordercolor="#666666"
     borderopacity="1.0"
     inkscape:pageshadow="2"
     inkscape:pageopacity="0.0"
     inkscape:pagecheckerboard="0"
     showgrid="false"
     inkscape:zoom="0.72396155"
     inkscape:cx="9.6690217"
     inkscape:cy="364.66025"
     inkscape:window-width="1265"
     inkscape:window-height="1011"
     inkscape:window-x="3843"
     inkscape:window-y="2133"
     inkscape:window-maximized="0"
     inkscape:current-layer="svg"
     fit-margin-top="0"
     fit-margin-left="0"
     fit-margin-right="0"
     fit-margin-bottom="0" />
  <g
     id="svgg"
     transform="translate(-37.736936,-111.76878)">
    <path
       id="path0"
       d="m 197.966,114.056 c -0.945,1.245 -1.901,3.49 -2.126,4.989 -0.35,2.336 -0.661,2.776 -2.175,3.079 -3.188,0.638 -3.789,12.109 -0.75,14.322 l 1.619,1.179 -2.591,1.322 c -4.381,2.235 -8.924,7.816 -10.066,12.366 -0.589,2.348 2.931,2.413 6.317,0.116 3.225,-2.189 4,-2.032 4.498,0.915 0.233,1.377 0.839,2.849 1.347,3.27 0.797,0.661 0.737,0.966 -0.43,2.208 l -1.354,1.442 1.65,1.435 c 2.633,2.289 2.254,4.507 -0.729,4.26 -2.371,-0.196 -2.382,-0.21 -3.093,-4.007 -1.178,-6.278 -1.783,-6.986 -4.331,-5.059 -1.771,1.339 -2.573,1.176 -5.091,-1.035 l -2.241,-1.967 -3.019,1.753 c -3.192,1.854 -4.088,2.751 -3.576,3.58 0.612,0.989 -2.31,0.485 -5.132,-0.886 l -2.865,-1.392 -2.618,1.472 c -2.859,1.606 -1.955,1.697 -11.686,-1.172 l -4.445,-1.31 -5.987,-7.829 c -10.183,-13.317 -15.113,-15.829 -23.702,-12.078 -3.585,1.566 -25.126,0.77 -28.047,-1.035 -1.956,-1.209 -2.002,-1.209 -3.945,0.021 -1.612,1.021 -3.892,1.364 -12.682,1.907 -11.147,0.688 -14.627,1.358 -15.934,3.067 -1.091,1.427 -0.998,1.846 0.464,2.078 0.909,0.144 -1.267,1.879 -7.521,5.995 -8.407,5.535 -8.831,5.916 -9.5,8.551 -0.913,3.599 -1.671,3.774 8.786,-2.03 8.682,-4.818 9.334,-5.073 12.037,-4.69 6.388,0.904 6.3,0.635 1.726,5.318 -4.214,4.313 -6.608,8.714 -4.404,8.095 0.599,-0.169 1.962,-0.481 3.027,-0.694 1.065,-0.213 3.48,-1.653 5.366,-3.2 4.567,-3.746 4.556,-3.538 -0.266,5.106 -4.031,7.226 -4.468,8.804 -3.109,11.233 0.981,1.753 5.205,-3.089 8.472,-9.711 3.462,-7.016 5.113,-8.374 7.399,-6.088 0.115,0.116 -1.386,4.013 -3.336,8.662 l -3.546,8.453 1.701,4.665 c 1.96,5.372 1.871,5.33 5.468,2.587 l 2.724,-2.078 3.179,-15.065 c 2.797,-13.255 4.17,-17.818 4.17,-13.855 0,6.128 4.66,25.23 6.55,26.848 4.786,4.1 5.878,-0.796 3.249,-14.569 -2.021,-10.588 -2.034,-10.58 3.349,-2.216 4.588,7.128 6.07,11.436 4.559,13.257 -2.052,2.473 0.997,5.68 9.855,10.367 11.705,6.194 10.906,5.289 8.86,10.03 -0.941,2.181 -1.571,4.104 -1.4,4.275 0.17,0.17 3.132,1.869 6.582,3.775 l 6.272,3.466 3.344,-2.857 c 2.852,-2.437 3.534,-2.756 4.634,-2.168 1.609,0.862 1.648,0.516 -0.628,5.536 -2.219,4.893 -2.306,4.731 3.504,6.51 l 4.445,1.361 1.354,-1.568 c 0.881,-1.02 3.487,-2.272 7.453,-3.58 5.835,-1.925 6.066,-2.071 5.367,-3.384 -0.402,-0.755 -3.27,-5.89 -6.372,-11.411 -6.945,-12.36 -6.941,-12.501 0.372,-12.501 h 5.232 l 1.266,3.968 1.267,3.969 3.28,0.191 c 3.848,0.224 3.536,0.886 4.648,-9.853 0.807,-7.802 0.687,-7.683 4.513,-4.474 1.822,1.528 4.127,11.865 4.274,19.161 0.112,5.59 2.178,6.263 2.909,0.946 0.324,-2.352 0.635,-3.042 1.144,-2.534 0.508,0.508 0.321,2.632 -0.69,7.797 -0.763,3.904 -1.253,7.234 -1.088,7.399 0.671,0.671 2.849,-2.117 2.853,-3.652 0.002,-0.907 0.534,-2.452 1.182,-3.435 l 1.178,-1.787 0.427,2.105 c 2.545,12.551 1.172,17.024 -5.226,17.024 -4.054,0 -4.395,0.114 -5.719,1.905 -1.421,1.922 -2.977,2.482 -3.397,1.222 -0.352,-1.056 -3.32,-0.051 -4.251,1.439 -0.667,1.069 -0.67,1.414 -0.012,1.82 0.58,0.359 0.621,0.741 0.142,1.344 -1.217,1.533 -22.589,28.733 -24.487,31.166 l -1.863,2.387 1.688,-0.642 c 3.215,-1.222 4.088,-1.936 7.003,-5.724 1.778,-2.311 3.407,-3.805 4.147,-3.805 0.67,0 1.686,-0.715 2.258,-1.588 0.628,-0.958 1.639,-1.587 2.554,-1.587 1.917,0 1.973,-0.25 -1.07,4.758 -1.421,2.34 -2.422,4.415 -2.225,4.613 0.915,0.915 3.603,-1.373 5.733,-4.879 3.559,-5.86 4.651,-4.976 1.613,1.307 l -2.497,5.164 1.726,2.441 c 2.524,3.57 4.991,2.524 7.09,-3.004 1.237,-3.261 1.372,-3.195 2.574,1.245 0.457,1.691 1.242,3.231 1.743,3.424 0.502,0.192 2.128,2.02 3.613,4.061 2.986,4.103 3.532,4.14 3.532,0.235 0,-3.22 0.309,-3.584 2.375,-2.799 0.886,0.337 1.734,0.489 1.885,0.337 0.562,-0.561 2.129,-20.472 1.768,-22.467 -0.235,-1.299 -0.045,-2.542 0.509,-3.333 1.899,-2.711 2.744,0.129 3.589,12.072 0.432,6.111 1.071,11.457 1.419,11.88 0.368,0.447 0.474,2.444 0.253,4.762 -1.547,16.251 -1.124,20.183 2.17,20.183 3.294,0 3.717,-3.932 2.17,-20.183 -0.221,-2.318 -0.115,-4.315 0.253,-4.762 0.348,-0.423 0.987,-5.769 1.419,-11.88 0.589,-8.319 1.037,-11.401 1.783,-12.265 1.45,-1.677 2.737,0.214 2.263,3.325 -0.34,2.233 1.244,22.093 1.807,22.656 0.158,0.158 1.017,0.01 1.909,-0.329 1.869,-0.711 2.364,-10e-4 2.364,3.384 0,3.29 0.654,3.139 3.532,-0.816 1.485,-2.041 3.111,-3.869 3.613,-4.061 0.501,-0.193 1.286,-1.733 1.743,-3.424 1.208,-4.464 1.348,-4.527 2.656,-1.196 2.201,5.603 4.475,6.538 7.049,2.899 l 1.767,-2.499 -2.568,-5.107 c -3.14,-6.246 -1.981,-7.149 1.602,-1.25 2.1,3.457 4.816,5.796 5.701,4.91 0.181,-0.18 -0.826,-2.298 -2.236,-4.706 -2.489,-4.248 -2.523,-4.385 -1.161,-4.598 0.942,-0.146 1.8,0.324 2.605,1.429 0.66,0.906 1.731,1.648 2.38,1.648 0.693,0 2.388,1.57 4.108,3.805 2.908,3.78 3.791,4.503 6.973,5.713 1.416,0.538 1.094,-0.089 -2.199,-4.285 -20.311,-25.881 -23.01,-29.514 -22.268,-29.972 0.625,-0.387 0.618,-0.761 -0.035,-1.807 -0.931,-1.49 -3.899,-2.495 -4.251,-1.439 -0.42,1.26 -1.976,0.7 -3.397,-1.222 -1.324,-1.791 -1.665,-1.905 -5.719,-1.905 -6.396,0 -7.771,-4.474 -5.228,-17.012 l 0.424,-2.092 1.185,1.949 c 0.651,1.071 1.185,2.606 1.185,3.409 0,0.804 0.755,2.154 1.678,3.001 l 1.679,1.539 -0.36,-1.905 c -0.198,-1.047 -0.866,-4.549 -1.485,-7.781 -0.811,-4.235 -0.932,-6.069 -0.434,-6.567 0.498,-0.498 0.815,0.212 1.136,2.542 0.841,6.118 2.535,4.568 3.058,-2.797 0.774,-10.896 2.138,-15.758 5.048,-17.994 3.176,-2.442 2.793,-3.002 3.628,5.306 1.062,10.557 0.764,9.929 4.61,9.705 l 3.28,-0.191 1.267,-3.969 1.266,-3.968 h 5.232 c 7.282,0 7.286,0.123 0.355,12.479 -3.103,5.533 -5.951,10.647 -6.328,11.364 -0.64,1.219 -0.287,1.443 5.439,3.456 3.805,1.338 6.629,2.741 7.46,3.707 l 1.337,1.555 4.4,-1.439 c 5.778,-1.888 5.668,-1.68 3.46,-6.549 -2.278,-5.025 -2.24,-4.673 -0.608,-5.546 1.126,-0.603 1.78,-0.299 4.659,2.16 l 3.35,2.862 6.452,-3.604 c 7.239,-4.043 7.014,-3.656 4.839,-8.329 -1.908,-4.099 -2.671,-3.256 8.361,-9.238 9.61,-5.212 12.536,-8.235 10.428,-10.775 -1.425,-1.717 0.192,-6.279 4.771,-13.462 5.121,-8.033 5.236,-7.935 3.155,2.689 -1.967,10.043 -1.667,16.24 0.78,16.105 3.162,-0.175 4.506,-3.342 6.868,-16.187 1.282,-6.972 2.519,-12.886 2.749,-13.143 0.23,-0.256 1.847,6.309 3.594,14.589 l 3.177,15.055 2.724,2.078 c 3.597,2.743 3.508,2.785 5.468,-2.587 l 1.701,-4.665 -3.551,-8.466 c -3.682,-8.777 -3.73,-9.473 -0.652,-9.496 1.017,-0.008 2.033,1.49 4.762,7.021 3.183,6.452 5.687,9.477 7.845,9.477 2.366,0 1.543,-3.659 -2.469,-10.978 -4.798,-8.754 -4.817,-8.919 -0.603,-5.436 3.282,2.714 4.345,3.264 7.727,3.999 l 2.046,0.445 -0.699,-2.11 c -0.384,-1.161 -2.432,-3.888 -4.551,-6.061 -4.394,-4.508 -4.403,-4.431 0.599,-5.362 l 3.735,-0.694 9.188,5.126 c 5.054,2.819 9.253,5.062 9.332,4.983 0.078,-0.079 -0.174,-1.39 -0.561,-2.915 -0.674,-2.656 -1.069,-3.01 -9.549,-8.55 -6.455,-4.218 -8.486,-5.835 -7.518,-5.983 1.511,-0.231 1.613,-0.642 0.514,-2.078 -1.299,-1.698 -4.758,-2.368 -15.98,-3.092 -8.691,-0.562 -11.132,-0.929 -12.682,-1.911 -1.894,-1.199 -1.947,-1.199 -3.936,0.031 -2.62,1.619 -24.929,2.619 -27.519,1.233 -0.837,-0.448 -3.113,-1.195 -5.058,-1.658 l -3.535,-0.844 -4.792,3.255 c -3.932,2.67 -5.871,4.665 -10.794,11.101 l -6.001,7.846 -4.445,1.303 c -9.769,2.865 -8.828,2.771 -11.686,1.165 l -2.618,-1.472 -2.865,1.392 c -3.497,1.699 -5.37,1.797 -5.371,0.281 -0.001,-0.673 -1.261,-1.819 -3.195,-2.905 l -3.194,-1.794 -2.224,1.953 c -2.491,2.187 -3.085,2.298 -5.355,1 -2.647,-1.513 -2.866,-1.238 -4.051,5.079 -0.711,3.797 -0.722,3.811 -3.093,4.007 -2.978,0.247 -3.32,-1.72 -0.718,-4.131 l 1.662,-1.54 -1.366,-1.454 c -1.176,-1.252 -1.237,-1.559 -0.441,-2.22 0.508,-0.421 1.114,-1.893 1.347,-3.27 0.495,-2.928 2.166,-3.367 4.493,-1.181 0.774,0.727 2.62,1.485 4.103,1.684 l 2.695,0.361 -0.452,-1.799 c -1.157,-4.611 -5.668,-10.206 -10.017,-12.425 l -2.517,-1.284 1.638,-1.518 c 3.026,-2.804 2.015,-13.672 -1.316,-14.153 -0.981,-0.141 -1.432,-0.787 -1.698,-2.429 -0.372,-2.291 -3.298,-7.872 -4.105,-7.831 -0.247,0.013 -1.222,1.042 -2.166,2.287 m -1.176,13.404 -0.036,3.651 -1.198,-2.857 c -1.549,-3.69 -1.549,-4.444 0,-4.444 1.126,0 1.265,0.411 1.234,3.65 m 8.889,-2.857 c -0.02,0.437 -0.575,2.08 -1.235,3.651 l -1.198,2.857 -0.036,-3.651 c -0.031,-3.239 0.108,-3.65 1.234,-3.65 0.699,0 1.254,0.357 1.235,0.793 m -12.367,18.095 c -0.885,4.473 -0.956,4.604 -2.53,4.604 -1.841,0 -1.901,-0.336 -0.615,-3.415 1.015,-2.428 3.582,-3.398 3.145,-1.189 m 16.562,1.091 c 1.264,3.025 1.168,3.513 -0.688,3.513 -1.68,0 -1.866,-0.278 -2.449,-3.651 -0.524,-3.035 1.855,-2.93 3.137,0.138 m -105.478,9.425 c 1.186,1.855 3.754,4.579 5.706,6.053 1.952,1.473 3.549,2.92 3.549,3.214 0,0.294 0.178,1.424 0.395,2.511 l 0.395,1.976 -4.936,-2.055 c -5.455,-2.272 -7.723,-4.829 -10.412,-11.738 l -1.297,-3.334 h 2.221 c 1.989,0 2.447,0.353 4.379,3.373 m 196.511,-0.039 c -2.677,6.877 -4.965,9.469 -10.334,11.705 -2.672,1.113 -4.859,1.792 -4.859,1.508 0,-2.884 1.081,-4.646 4.493,-7.327 2.175,-1.708 4.448,-4.224 5.484,-6.068 1.628,-2.899 1.959,-3.15 4.141,-3.151 l 2.372,-0.001 -1.297,3.334 m -111.092,19.682 c 0.385,1.833 1.375,5.976 2.201,9.206 l 1.501,5.874 h -1.753 c -1.574,0 -1.899,-0.405 -3.186,-3.969 -0.789,-2.182 -2.094,-5.738 -2.9,-7.9 l -1.467,-3.933 2.021,-1.295 c 2.764,-1.77 2.793,-1.754 3.583,2.017 m 23.881,-2.036 2.099,1.298 -1.47,3.94 c -0.808,2.168 -2.114,5.727 -2.903,7.909 -1.283,3.551 -1.616,3.969 -3.17,3.969 h -1.736 l 2.28,-9.207 c 1.254,-5.063 2.397,-9.206 2.54,-9.206 0.143,0 1.205,0.584 2.36,1.297 m -94.966,4.1 c 0,2.459 -0.111,2.538 -2.105,1.501 -2.021,-1.051 -2.019,-1.04 -0.366,-2.417 2.115,-1.761 2.471,-1.628 2.471,0.916 m 11.867,-1.164 c 1.025,0.243 1.72,1.306 2.646,4.05 l 1.257,3.72 -3.38,0.983 c -4.283,1.245 -3.789,1.321 -6.713,-1.029 -2.361,-1.897 -2.502,-2.207 -2.502,-5.47 v -3.459 l 3.651,0.438 c 2.007,0.24 4.276,0.586 5.041,0.767 m 147.498,2.327 c 0,3.178 -0.153,3.509 -2.502,5.397 -2.924,2.35 -2.43,2.274 -6.713,1.029 l -3.38,-0.983 1.27,-3.76 c 1.191,-3.526 1.416,-3.784 3.599,-4.139 1.281,-0.209 2.758,-0.47 3.282,-0.581 3.999,-0.846 4.444,-0.542 4.444,3.037 m 5.419,-2.36 c 2.043,1.338 1.974,1.882 -0.339,2.689 -1.877,0.654 -1.905,0.631 -1.905,-1.525 0,-2.503 0.112,-2.561 2.244,-1.164 m -119.704,8.498 c 0,0.367 -2.011,0.635 -4.762,0.635 -2.752,0 -4.762,-0.268 -4.762,-0.635 0,-0.367 2.01,-0.635 4.762,-0.635 2.751,0 4.762,0.268 4.762,0.635 m 81.904,0 c 0,0.367 -2.01,0.635 -4.762,0.635 -2.751,0 -4.762,-0.268 -4.762,-0.635 0,-0.367 2.011,-0.635 4.762,-0.635 2.752,0 4.762,0.268 4.762,0.635 m -94.3,12.588 3.135,3.381 -2.491,2.092 -2.492,2.092 -3.314,-2.861 -3.314,-2.861 2.322,-2.777 c 2.716,-3.249 2.203,-3.327 6.154,0.934 m 103.332,-0.928 2.316,2.771 -3.378,2.916 -3.377,2.916 -2.436,-2.106 -2.437,-2.106 3.156,-3.546 c 3.814,-4.285 3.335,-4.219 6.156,-0.845 m -59.242,24.689 c -0.047,8.736 -0.137,9.497 -0.924,7.778 -1.706,-3.727 -1.089,-17.46 0.785,-17.46 0.105,0 0.167,4.357 0.139,9.682 m 10.817,-1.192 c -0.019,4.587 -0.335,7.734 -0.901,8.97 -0.787,1.718 -0.877,0.946 -0.924,-7.855 -0.045,-8.608 0.061,-9.667 0.901,-8.97 0.745,0.619 0.946,2.324 0.924,7.855"
       stroke="none"
       fill="#aaaaaa"
       fill-rule="evenodd" />
  </g>
</svg>
